# xmcd
# Track frame offsets:
# 150
# 17972
# 34500
# 53627
# 69190
# 95980
# 113480
# 128580
# 142762
# 155430
# 182450
#
# Disc length: 2575 seconds
# Revision: 0
# Processed by: cddbd v1.5.1PL0 Copyright (c) Steve Scherf et al.
# Submitted via: VisiTrax 2.9.9.209 - For more info visit www.synapsa.com
#
DISCID=810a0d0b
DTITLE=Flying Norwegians - New Day
DYEAR=1974
DGENRE=Country-Rock
TTITLE0=Young Man
TTITLE1=Time's Drawing Circles
TTITLE2=Those Were The Days
TTITLE3=Lucky Number
TTITLE4=New Day
TTITLE5=Behind The Words
TTITLE6=Spanish Tragedy
TTITLE7=Tricky Lies
TTITLE8=Human Need
TTITLE9=You'll Come Around
TTITLE10=It Ain't Just Another Blow
EXTD=
EXTT0=
EXTT1=
EXTT2=
EXTT3=
EXTT4=
EXTT5=
EXTT6=
EXTT7=
EXTT8=
EXTT9=
EXTT10=
PLAYORDER=
